<svg width="1401" height="749" viewBox="0 0 1401 749" fill="none" xmlns="http://www.w3.org/2000/svg">
<g clip-path="url(#clip0_2191_8)">
<path d="M1134 660.05V702H1086.22L1085.86 644.4C1085.66 612.72 1085.65 580.1 1085.85 571.9L1086.22 557H1134V563C1134 566.3 1134.25 569 1134.55 569C1134.86 569 1136.55 567.62 1138.3 565.94C1145.66 558.89 1159.65 554.04 1172.7 554.01C1186.84 553.99 1198.34 558.17 1208.1 566.89L1213.71 571.9L1217.1 568.37C1221.38 563.93 1230.71 558.7 1238.5 556.36C1246.76 553.88 1268.25 553.81 1275.82 556.23C1288.58 560.31 1300.62 570.68 1306 582.21C1311.67 594.35 1312 598.26 1312 652.57V702H1263.13L1262.81 656.75C1262.47 606.85 1262.5 607.12 1256.1 601.74C1245.52 592.83 1227.67 597.73 1224.12 610.52C1223.39 613.14 1223.01 629.42 1223.01 658.25L1223 702H1174L1173.99 657.75C1173.99 629.96 1173.6 612.1 1172.94 609.72C1169.16 596.12 1151.12 592.6 1140.38 603.37C1134.24 609.52 1134 611.69 1134 660.05ZM708.23 703.37C690.63 707.47 676.21 705.81 661 697.92C639.9 686.98 627.23 666.84 624.02 639.14C622.75 628.21 623.78 618.44 627.58 605.33C631.59 591.49 637.7 581.32 647.63 571.97C660.44 559.91 672.29 554.87 689.43 554.2C705.88 553.55 717.68 556.98 726.29 564.91C728.73 567.16 731.01 569 731.36 569C731.71 569 732 553.03 732 533.5V498H780V702H732V689.63L729.25 692.25C724.42 696.85 715.16 701.75 708.23 703.37ZM888.6 704.99C862.5 708.26 838.6 700.51 820.81 683C813.64 675.94 811.42 672.97 808.08 665.97C801.77 652.74 800.52 646.76 800.54 630C800.56 616.32 800.75 614.95 803.82 605.78C812.11 581.03 831.81 563.23 858.5 556.39C867.43 554.1 869.84 553.88 881 554.34C902.2 555.2 916.14 561.16 930.52 575.5C936.47 581.43 939.66 585.66 942.87 591.84C950.16 605.89 953.57 622 952.33 636.57L951.71 644H900.85C855.59 644 850 644.17 850 645.55C850 649.92 858.07 659.99 863.93 662.94C877.71 669.86 894.36 667.09 904.63 656.18L909.28 651.23L913.89 654.75C916.43 656.68 924.01 662.09 930.74 666.76L942.97 675.26L938.74 680.31C927.6 693.61 909.92 702.32 888.6 704.99ZM825.41 334.48C822.87 341.37 820.51 346.99 820.15 346.98C819.79 346.98 818.83 346.53 818 346C817.17 345.46 813.12 343.62 809 341.9C804.88 340.18 801.39 338.67 801.25 338.55C801.11 338.43 802.81 333.27 805.02 327.07C815.35 298.1 822.9 266.01 827.62 231C828.76 222.58 829.31 206.72 829.69 171.85L830.22 124.19L822.36 123.53C772.65 119.36 721.17 99.47 673.75 66.14L666 60.69V46.84C666 39.23 666.3 33 666.66 33C667.02 33 671.41 35.65 676.41 38.88C692.14 49.05 702.83 55.04 721.44 64.08C739.89 73.04 743.72 74.58 769 83.2C792.4 91.18 823.27 97.77 845.37 99.5L854.23 100.2L853.73 153.35C853.3 199.58 852.95 208.84 851.07 224.44C846.57 261.75 836.86 303.39 825.41 334.48ZM1021.5 620.5L1020.92 702H971V557H1021L1021.01 573.5L1024.98 568.87C1032.93 559.6 1043.96 554.99 1058.14 555.01C1059.2 555.02 1060.16 555 1061.04 554.99C1064.59 554.94 1066.75 554.92 1068.06 555.96C1070.07 557.56 1070.06 561.72 1070.01 572.31C1070.01 574 1070 575.86 1070 577.89V599.55L1059.32 599.16C1046.19 598.67 1040.17 599.96 1033 604.79C1028.72 607.68 1026.83 609.83 1024.5 614.5L1021.5 620.5ZM564.46 398.25C563.45 402.51 562.27 406 561.82 406C560.64 406 560.81 390.51 562.08 381.36C564.57 363.46 570.88 349.53 586.88 326.61C592.29 318.85 597.73 310.52 598.96 308.09C603.65 298.86 606.26 277.46 604.07 266.14C602.43 257.65 598.25 254.42 581 248.37C575.22 246.34 566.11 242.47 560.75 239.75C548.5 233.55 541.67 226.51 536.86 215.13C533.94 208.22 533.6 206.31 533.21 194.97C532.76 181.79 534.08 169.68 536.48 165.04C539.36 159.47 548.52 158.37 569.5 161.08C583.46 162.88 595.93 162.77 599.5 160.8C601.15 159.89 605.42 156.15 609 152.49C624.65 136.44 640.28 130.12 661.41 131.29C691.22 132.94 724.22 150.02 738.95 171.42C743.43 177.94 748.71 189.66 750.56 197.2C751.41 200.67 755.68 210.93 760.04 220C771.83 244.51 771.7 249.7 758.97 263.41L753.32 269.5L754.55 276.66C757.67 294.86 764.85 308.15 783.94 331.08L786.92 334.66L781.21 334.21C777.96 333.96 774.68 333.06 773.6 332.13C770.06 329.1 759.83 314.61 756.35 307.69C752.27 299.6 746 281.38 746 277.62C746 276.18 745.78 275 745.52 275C745.26 275 742.67 276.52 739.77 278.37C722.84 289.18 704.61 291.89 692.86 285.32C682.57 279.58 676.99 267.19 677.01 250.14C677.03 240.78 679.46 225.83 682 219.5C684.28 213.84 684.79 219.77 683.21 233.5C682.03 243.79 681.95 248.12 682.82 254.28C684.67 267.19 690.1 276.78 697.49 280.13C702.02 282.19 710.98 282.53 717.99 280.92C727.59 278.7 742.45 269.52 753.35 259.07C760.94 251.79 763 248.58 763 244.05C763 241.15 754.06 222.71 746.49 210C744.2 206.15 743 202.63 742.51 198.27C741.06 185.38 730.9 169.63 717.77 159.89C700.21 146.87 680.63 139.44 661 138.37C642.04 137.32 629.47 142.01 614.62 155.65C601.57 167.64 599.2 168.41 578.21 167.56C569.24 167.2 561.26 166.65 560.46 166.34C559.44 165.95 559 166.49 559 168.14C558.99 174.27 550.89 180.93 543.38 180.98C540.68 181 540.16 181.43 539.62 184.12C537.97 192.42 540.03 206.01 544.24 214.5C547.89 221.85 553.63 228.43 559.42 231.9C562.54 233.77 572.99 238.17 582.63 241.67C601.58 248.56 605.73 250.82 610.58 256.96L613.73 260.94L613.29 275.22C612.55 299.55 609.28 308.74 593.5 331C588.63 337.88 582.73 347.1 580.4 351.5C575.02 361.64 568.7 380.19 564.46 398.25ZM694.12 662.06C699.48 663.42 710.06 662.52 715.02 660.28C727.44 654.67 734.24 639.85 731.92 623.45C730.31 612.08 724.62 603.8 715.81 600.01C704.75 595.26 692.29 596.64 684.27 603.51C671.73 614.24 669.25 637.99 679.29 651.16C683.19 656.27 689.46 660.87 694.12 662.06ZM850.01 613.25C850 614.87 851.98 615 877.57 615H905.13L904.47 612.75C900.76 600.1 891.1 592.57 878.5 592.53C870.92 592.5 866.86 593.77 860.24 598.24C855.97 601.12 850.03 609.84 850.01 613.25ZM724 491.18C724 493.83 722.01 493.41 721.95 490.75C721.92 489.51 720.87 485.82 719.61 482.54C717.11 476 714.96 474.25 706.39 471.79L701.5 470.38L708.1 468.16C711.74 466.93 715.38 465.39 716.2 464.72C718.03 463.22 722 453.88 722 451.06C722 449.93 722.45 449 723 449C723.55 449 724 449.86 724 450.91C724 451.96 724.99 455.4 726.19 458.54C728.06 463.43 728.97 464.54 732.44 466.11C734.67 467.13 737.03 467.97 737.68 467.98C738.34 467.99 740.13 468.48 741.66 469.06C744.38 470.09 744.26 470.19 737.52 472.46C733.71 473.74 729.78 475.78 728.8 476.99C726.95 479.28 724 488 724 491.18ZM652 186.22C652 187.5 649.8 186.97 644.27 184.36C641.3 182.95 635.98 181.56 632.01 181.13C628.14 180.72 624.53 179.93 623.99 179.39C622.59 177.99 628.43 169 630.75 169C631.73 169 634.33 170.18 636.52 171.63C640.91 174.53 652 184.98 652 186.22Z" fill="#3D1B71"/>
<path d="M298.5 702.98C273.81 706.44 254.6 700.49 238.99 684.58C230.71 676.14 223.75 662.4 221.08 649.2C219.31 640.5 219.77 623.55 222.01 614.66C227.36 593.4 239.72 577.93 258.5 568.98C267.97 564.47 275.09 563 287.55 563C304.21 563 315.62 566.83 324.93 575.53L329.91 580.19L330.2 572.84L330.5 565.5L347.26 565.23L364.01 564.95L363.76 633.23L363.5 701.5H330.5L330.84 696.29C331.03 693.43 330.89 689.76 330.53 688.13L329.88 685.18L325.79 689.61C320.3 695.57 307.84 701.67 298.5 702.98ZM130.14 703.95C124.45 704.53 118.6 704.92 117.14 704.83C107.8 704.21 104.86 703.9 99.5 702.95C82.1 699.89 66.53 692.34 51 679.46C41.22 671.34 36.01 665.04 28.83 652.65C18.19 634.28 14.38 617.41 15.25 592.55C15.68 580.31 16.14 577.32 18.81 569.33C30.64 534.03 56.38 508.4 90.1 498.31C98.89 495.68 100.67 495.5 117.5 495.5C133.2 495.5 136.59 495.8 144 497.81C154.36 500.64 168.89 507.38 176.13 512.73C185.41 519.58 200 537.03 200 541.28C200 541.96 198.09 543.7 195.75 545.15C193.41 546.6 187.49 550.37 182.58 553.52L173.66 559.25L171.66 556.38C163.94 545.27 148.96 534.79 135.88 531.34C127.51 529.14 109.12 529.24 101.19 531.54C83.83 536.55 67.97 550.2 59.69 567.24C53.4 580.2 51.75 587.05 51.68 600.5C51.61 613.67 53.26 620.64 59.5 633.59C64.82 644.61 69.99 651.34 77.69 657.26C89.87 666.61 102.91 671.01 118.41 670.98C130.46 670.96 139.41 668.94 149.85 663.89C156.85 660.5 160.01 658.15 166.82 651.26L175.19 642.8L180.84 646.64C183.96 648.76 190 653.03 194.28 656.14L202.06 661.79L196.21 669.14C186.94 680.8 173.02 691.22 159.02 696.99C149.03 701.11 142.42 702.7 130.14 703.95ZM544.53 396.04C542.65 403.29 540.91 409.43 540.66 409.68C540.07 410.26 536.41 405.37 530.77 396.5C513.5 369.35 498.43 334.67 489.06 300.5C475.52 251.13 471.65 208.8 473.47 129.82L474.23 97.1296L480.86 96.5396C522.98 92.7796 552.24 86.3096 585 73.5096C598.61 68.1896 633.98 50.6596 651.34 40.6296L666.18 32.0596L673.34 36.8696C673.8 37.1796 674.26 37.4896 674.74 37.8096C670.47 35.0796 666.98 32.9996 666.66 32.9996C666.3 32.9996 666 39.2296 666 46.8396V60.6896L670.71 63.9996C668.61 62.5796 666.98 61.5496 666.55 61.3796C665.86 61.1196 659.27 64.4596 651.9 68.8096C609.91 93.5796 582.74 105.06 546.03 113.52C531.46 116.88 510.52 120 502.56 120H498.31L497.66 135.75C495.91 177.98 497.46 223.75 501.58 251.5C503.3 263.13 509.17 289.83 512.61 301.77C518.98 323.82 529.55 349.3 540.99 370.18L547.94 382.86L544.53 396.04ZM432.02 659L431.5 701.5L398 702.05V565H432V581.42L436.75 576.87C443.81 570.1 447.08 568.17 456.14 565.46C462.39 563.59 466.65 563 473.97 563C498.33 563 514.5 573.77 522.19 595.11C524.45 601.41 524.49 602.23 524.8 651.78L525.12 702.05L508.81 701.78L492.5 701.5L491.93 658C491.28 607.76 491.14 606.87 483.14 598.86C477.81 593.52 472.75 591.7 463.39 591.73C450 591.77 439.7 598.58 434.91 610.56C432.57 616.4 432.53 617.19 432.02 659ZM601 485.94C589.91 488.82 570.62 489.55 559.85 487.5C543.71 484.44 525.13 475.77 511.5 464.93C507.37 461.66 504 458.75 504 458.47C504 458.19 505.69 458.82 507.76 459.88C513.63 462.87 524.63 465.79 534.7 467.03C553.41 469.32 573.3 465.37 593.27 455.38C608.48 447.78 618.9 440.29 642.5 420.03C675.55 391.67 691.36 380.46 712.5 370.44C726.22 363.93 736.7 360.36 749.29 357.91C761.11 355.6 778.51 355.44 788.5 357.55C792.35 358.36 797.3 359.33 799.5 359.7C803.17 360.32 802.66 360.52 793.38 362.06C780.09 364.26 773.59 366.29 761.5 372.04C743.89 380.41 734.9 387.38 699 420.49C667.73 449.33 652.1 461.92 635.11 471.94C627.01 476.71 610.57 483.46 601 485.94ZM279.3 672.19C283.35 673.64 286.61 673.97 294 673.69C309.58 673.11 319.6 667.15 325.83 654.78C332.42 641.68 332.43 624.2 325.84 611.32C322.05 603.92 317.45 599.32 309.79 595.29C304.85 592.69 303.7 592.5 292.5 592.5C280.97 592.5 280.26 592.62 274.44 595.67C266.95 599.58 261.73 605.24 257.64 613.88C254.64 620.21 254.5 621.05 254.51 633C254.52 644.5 254.74 645.97 257.25 651.34C262.32 662.21 268.99 668.52 279.3 672.19ZM594 565V702H577.5C568.42 702 560.95 701.66 560.89 701.25C560.43 698.28 560.19 573.49 560.63 569.75L561.19 565H594ZM584.98 537.92C579.78 540.28 576.94 540.42 571.76 538.58C565.97 536.51 563.2 534.31 561.04 530.08C553.69 515.68 562.42 499.95 577.71 500.02C588.78 500.07 596.09 507.12 596.82 518.45C597.43 528.1 593.93 533.86 584.98 537.92ZM785.18 456.8C783.67 461.25 782.2 465.13 781.92 465.41C781.63 465.7 780.61 462.96 779.64 459.33C777.24 450.32 774.21 444.19 771.17 442.18C769.78 441.26 764.41 439.11 759.25 437.42L749.87 434.33L756.3 432.59C759.83 431.64 765.01 429.79 767.81 428.5C773.53 425.85 775.24 423.23 779.07 411.25C780.35 407.26 781.64 404.01 781.95 404.02C782.25 404.02 783.76 408.09 785.29 413.05C789.09 425.29 790.98 427.17 803.68 431.29L813.87 434.59L803.53 437.85C794.25 440.78 792.92 441.5 790.56 444.91C789.11 447 786.69 452.35 785.18 456.8ZM860.85 419C858.76 424.23 856.89 428.93 856.7 429.45C856.52 429.98 855.6 427.95 854.66 424.95C853.72 421.95 851.77 416.94 850.33 413.82C847.96 408.71 847.14 407.89 842.1 405.64C839.02 404.26 834.35 402.6 831.73 401.94C829.11 401.29 826.76 400.42 826.51 400.02C826.26 399.61 828.91 398.51 832.39 397.57C835.88 396.62 840.98 394.81 843.73 393.53C848.43 391.36 848.9 390.79 851.34 384.36C852.78 380.59 854.47 375.48 855.11 373L856.26 368.5L858.62 375.5C863.28 389.36 864.74 391.66 870.39 393.95C873.2 395.09 878.42 396.85 882 397.86L888.5 399.69L881.47 401.92C877.6 403.14 872.24 405.35 869.55 406.82C864.92 409.36 864.47 409.99 860.85 419ZM843.81 268.33C846.86 253.62 849.35 238.71 851.07 224.44C851.29 222.63 851.48 220.9 851.66 219.19C850.61 231.46 849.01 241.82 846.48 255.44C845.84 258.9 844.91 263.36 843.81 268.33ZM679.9 41.1196C690.24 47.5896 703.29 54.8996 715.7 61.2596C701.77 54.3396 692.19 48.9496 679.9 41.1196ZM677.59 68.7996C696.33 81.6296 715.68 92.3696 735.28 100.88C715.34 92.2896 695.87 81.4996 677.59 68.7996ZM808.78 93.9296C821.92 96.5196 836.72 98.8196 845.37 99.4996C834.62 98.6596 821.81 96.6696 808.78 93.9296ZM825.73 333.6C828.75 325.33 831.64 316.33 834.35 306.88C833.72 309.19 833.12 311.33 832.57 313.23C830.62 319.9 828.07 327.4 825.73 333.6ZM804.11 339.83C805.46 340.41 807.17 341.13 809 341.9C812.39 343.31 815.73 344.81 817.27 345.59C815.44 344.8 812.78 343.63 810 342.42C807.75 341.44 805.68 340.53 804.11 339.83ZM766.45 82.3296C771.11 83.8896 775.47 85.2996 779.49 86.5396C775.87 85.4596 772.36 84.3396 769 83.1996C768.12 82.8996 767.28 82.6096 766.45 82.3296Z" fill="#D4930A"/>
</g>
<defs>
<clipPath id="clip0_2191_8">
<rect width="1401" height="749" fill="white"/>
</clipPath>
</defs>
</svg>
